# xmcd CD database file
#
# Track frame offsets:
#	150
#	55347
#	111949
#	166889
#	196274
#	262939
#
# Disc length: 3971 seconds
#
# Revision: 1
# Processed by: cddbd v1.5.2PL0 Copyright (c) Steve Scherf et al.
# Submitted via: CDex 1.75
#
DISCID=4a0f8106
DTITLE=Kamasi Washington - The Epic Vol.1: The Plan
DYEAR=2015
DGENRE=Jazz
TTITLE0=Kamasi Washington - Change of the Guard
TTITLE1=Kamasi Washington - Askim
TTITLE2=Kamasi Washington - Isabelle
TTITLE3=Kamasi Washington - Final Thought
TTITLE4=Kamasi Washington - The Next Step
TTITLE5=Kamasi Washington - The Rhythm Changes
EXTD=YEAR: 2015
EXTT0=
EXTT1=
EXTT2=
EXTT3=
EXTT4=
EXTT5=
PLAYORDER=
